<svg xmlns="http://www.w3.org/2000/svg" viewBox="0 0 960 540" font-family="Arial, sans-serif">
  <rect width="960" height="540" fill="#e9ecef"/>
  <!-- janela -->
  <rect x="60" y="40" width="840" height="460" rx="8" fill="#ffffff" stroke="#c4c9d0"/>
  <rect x="60" y="40" width="840" height="36" rx="8" fill="#f1f3f5"/>
  <rect x="60" y="60" width="840" height="16" fill="#f1f3f5"/>
  <text x="80" y="64" font-size="14" fill="#343a40">Serviços (services.msc)</text>
  <circle cx="856" cy="58" r="6" fill="#dee2e6"/><circle cx="876" cy="58" r="6" fill="#dee2e6"/>
  <!-- cabeçalho tabela -->
  <rect x="80" y="96" width="800" height="30" fill="#f8f9fa" stroke="#e9ecef"/>
  <text x="92" y="116" font-size="13" fill="#495057" font-weight="bold">Nome</text>
  <text x="470" y="116" font-size="13" fill="#495057" font-weight="bold">Status</text>
  <text x="600" y="116" font-size="13" fill="#495057" font-weight="bold">Tipo de inicialização</text>
  <!-- linhas -->
  <text x="92" y="150" font-size="13" fill="#343a40">DHCP Client</text>
  <text x="470" y="150" font-size="13" fill="#343a40">Em execução</text>
  <text x="600" y="150" font-size="13" fill="#343a40">Automático</text>
  <!-- linha destacada -->
  <rect x="80" y="164" width="800" height="30" fill="#fff3cd" stroke="#ffe69c"/>
  <text x="92" y="184" font-size="13" fill="#343a40" font-weight="bold">e-SUS-AB PEC</text>
  <text x="470" y="184" font-size="13" fill="#c2402a" font-weight="bold">Parado</text>
  <text x="600" y="184" font-size="13" fill="#343a40">Manual</text>
  <text x="92" y="218" font-size="13" fill="#343a40">PostgreSQL Server</text>
  <text x="470" y="218" font-size="13" fill="#343a40">Em execução</text>
  <text x="600" y="218" font-size="13" fill="#343a40">Automático</text>
  <text x="92" y="252" font-size="13" fill="#343a40">Windows Update</text>
  <text x="470" y="252" font-size="13" fill="#343a40">Em execução</text>
  <text x="600" y="252" font-size="13" fill="#343a40">Automático</text>
  <!-- menu de contexto -->
  <rect x="360" y="196" width="180" height="120" rx="6" fill="#ffffff" stroke="#adb5bd"/>
  <rect x="360" y="196" width="180" height="30" rx="6" fill="#1351B4"/>
  <text x="376" y="216" font-size="13" fill="#ffffff">Iniciar</text>
  <text x="376" y="248" font-size="13" fill="#495057">Parar</text>
  <text x="376" y="278" font-size="13" fill="#495057">Reiniciar</text>
  <text x="376" y="306" font-size="13" fill="#495057">Propriedades</text>
  <!-- selo protótipo -->
  <text x="80" y="480" font-size="11" fill="#adb5bd">Imagem ilustrativa — protótipo</text>
</svg>
