<svg xmlns="http://www.w3.org/2000/svg" viewBox="0 0 960 540" font-family="Arial, sans-serif">
  <rect width="960" height="540" fill="#f4f6f8"/>
  <!-- topo PEC -->
  <rect x="0" y="0" width="960" height="48" fill="#1351B4"/>
  <text x="24" y="30" font-size="16" fill="#ffffff" font-weight="bold">e-SUS APS · PEC</text>
  <text x="820" y="30" font-size="13" fill="#cfe2ff">Enfermeira ANA</text>
  <!-- menu lateral -->
  <rect x="0" y="48" width="200" height="492" fill="#ffffff" stroke="#e1e5ea"/>
  <text x="20" y="88" font-size="13" fill="#495057">Agenda</text>
  <text x="20" y="120" font-size="13" fill="#495057">Cidadão</text>
  <rect x="0" y="138" width="200" height="32" fill="#e7f1ff"/>
  <text x="20" y="158" font-size="13" fill="#1351B4" font-weight="bold">Vacinação</text>
  <text x="20" y="196" font-size="13" fill="#495057">Relatórios</text>
  <!-- conteúdo -->
  <text x="230" y="90" font-size="18" fill="#212529" font-weight="bold">Registro de vacinação</text>
  <rect x="230" y="110" width="700" height="60" rx="6" fill="#ffffff" stroke="#dee2e6"/>
  <text x="246" y="136" font-size="13" fill="#868e96">Cidadão</text>
  <text x="246" y="156" font-size="14" fill="#212529" font-weight="bold">MARIA DA SILVA — CPF 000.000.000-00</text>
  <!-- campos -->
  <rect x="230" y="190" width="340" height="52" rx="6" fill="#ffffff" stroke="#dee2e6"/>
  <text x="244" y="210" font-size="11" fill="#868e96">Imunobiológico</text>
  <text x="244" y="230" font-size="13" fill="#212529">Tríplice viral (SCR)</text>
  <rect x="590" y="190" width="160" height="52" rx="6" fill="#ffffff" stroke="#dee2e6"/>
  <text x="604" y="210" font-size="11" fill="#868e96">Dose</text>
  <text x="604" y="230" font-size="13" fill="#212529">D1</text>
  <rect x="770" y="190" width="160" height="52" rx="6" fill="#ffffff" stroke="#dee2e6"/>
  <text x="784" y="210" font-size="11" fill="#868e96">Estratégia</text>
  <text x="784" y="230" font-size="13" fill="#212529">Rotina</text>
  <rect x="230" y="258" width="340" height="52" rx="6" fill="#ffffff" stroke="#dee2e6"/>
  <text x="244" y="278" font-size="11" fill="#868e96">Lote / Fabricante</text>
  <text x="244" y="298" font-size="13" fill="#212529">210XYZ — FIOCRUZ</text>
  <!-- alerta -->
  <rect x="230" y="330" width="700" height="44" rx="6" fill="#fff3cd" stroke="#ffe69c"/>
  <text x="246" y="357" font-size="13" fill="#7a5d00">Finalize o atendimento para que a dose seja enviada à RNDS.</text>
  <!-- botões -->
  <rect x="770" y="400" width="160" height="40" rx="20" fill="#1351B4"/>
  <text x="812" y="425" font-size="14" fill="#ffffff" font-weight="bold">Finalizar</text>
  <rect x="600" y="400" width="150" height="40" rx="20" fill="#ffffff" stroke="#1351B4"/>
  <text x="638" y="425" font-size="14" fill="#1351B4">Salvar</text>
  <text x="230" y="500" font-size="11" fill="#adb5bd">Imagem ilustrativa — protótipo</text>
</svg>
